<svg xmlns="http://www.w3.org/2000/svg" width="57.21" height="55" viewBox="0 0 57.21 55">
  <defs>
    <style>
      .cls-1 {
        fill-rule: evenodd;
      }
    </style>
  </defs>
  <path id="Icon_The_Stars.svg" class="cls-1" d="M1361.98,5891a3.326,3.326,0,0,1,3.16,2.31l4.92,15.01,0.23,0.69h15.79a3.377,3.377,0,0,1,3.36,1.99,3.33,3.33,0,0,1-1.17,3.71l-12.79,8.46-0.64.42,0.24,0.73,5.08,15.31a3.342,3.342,0,0,1-1.21,3.73,3.312,3.312,0,0,1-3.9.01l-12.48-9.17-0.6-.44-0.59.44-12.47,9.16a3.291,3.291,0,0,1-3.9,0,3.327,3.327,0,0,1-1.21-3.73l5.07-15.31,0.24-.73-0.64-.42-12.74-8.44a3.327,3.327,0,0,1-1.21-3.73,3.364,3.364,0,0,1,3.35-1.99h15.79l0.23-.69,4.93-15.02a3.311,3.311,0,0,1,3.16-2.3m0-1a4.329,4.329,0,0,0-4.12,3l-4.92,15.01h-15.07a4.127,4.127,0,0,0-2.73,7.53l12.77,8.47-5.07,15.31a4.328,4.328,0,0,0,6.66,4.85l12.48-9.16,12.47,9.16a4.33,4.33,0,0,0,6.66-4.85l-5.07-15.31,12.78-8.47a4.128,4.128,0,0,0-2.74-7.53h-15.07l-4.92-15.01a4.325,4.325,0,0,0-4.11-3h0Z" transform="translate(-1333.38 -5890)"/>
</svg>
