<svg xmlns="http://www.w3.org/2000/svg" width="56" height="55" viewBox="0 0 56 55">
  <defs>
    <style>
      .cls-1 {
        fill-rule: evenodd;
      }
    </style>
  </defs>
  <path id="Icon_Amazing_comm.svg" class="cls-1" d="M985.508,5924.95a25.012,25.012,0,0,0-17.591-28.97,6.99,6.99,0,0,0-13.834,0,25.012,25.012,0,0,0-17.591,28.97,6.991,6.991,0,0,0,6.494,12.37,24.967,24.967,0,0,0,36.028,0A6.991,6.991,0,0,0,985.508,5924.95ZM982,5937a6,6,0,1,1,6-6A6.005,6.005,0,0,1,982,5937Zm-21-46a6,6,0,1,1-6,6A6.005,6.005,0,0,1,961,5891Zm-21,46a6,6,0,1,1,6-6A6.005,6.005,0,0,1,940,5937Zm21,7a23.889,23.889,0,0,1-17.1-7.19A7,7,0,0,0,940,5924a7.08,7.08,0,0,0-2.572.49A23.977,23.977,0,0,1,954,5897.04a7,7,0,0,0,14,0,23.977,23.977,0,0,1,16.574,27.45A7.08,7.08,0,0,0,982,5924a7,7,0,0,0-3.9,12.81A23.889,23.889,0,0,1,961,5944Z" transform="translate(-933 -5890)"/>
</svg>
